<?xml version="1.0" encoding="iso-8859-1"?>
<!-- Generator: Adobe Illustrator 19.0.0, SVG Export Plug-In . SVG Version: 6.00 Build 0)  -->
<svg version="1.1" id="Layer_1" xmlns="http://www.w3.org/2000/svg" xmlns:xlink="http://www.w3.org/1999/xlink" x="0px" y="0px"
	 viewBox="0 0 511.997 511.997" style="enable-background:new 0 0 511.997 511.997;" xml:space="preserve">
<circle style="fill:#21D0C3;" cx="255.999" cy="255.999" r="255.999"/>
<path style="fill:#ECF0F1;" d="M362.708,82.74H149.123c-18.258,0-34.86,7.473-46.897,19.51
	c-12.039,12.037-19.51,28.641-19.51,46.897v213.586c0,18.258,7.473,34.86,19.51,46.897c12.037,12.039,28.641,19.51,46.897,19.51
	h213.586c18.258,0,34.86-7.473,46.897-19.51c12.039-12.037,19.51-28.638,19.51-46.897V149.147c0-18.258-7.473-34.86-19.51-46.897
	C397.568,90.21,380.968,82.74,362.708,82.74z M149.123,76.846h213.586c19.888,0,37.966,8.134,51.065,21.235
	c13.102,13.102,21.235,31.18,21.235,51.065v213.586c0,19.888-8.134,37.966-21.235,51.065c-13.102,13.102-31.18,21.235-51.065,21.235
	H149.123c-19.885,0-37.966-8.134-51.065-21.235c-13.102-13.102-21.235-31.18-21.235-51.065V149.147
	c0-19.885,8.134-37.966,21.235-51.065C111.16,84.981,129.238,76.846,149.123,76.846z"/>
<path style="fill:#FFFFFF;" d="M255.916,79.912c97.217,0,176.03,78.811,176.03,176.03c0,97.217-78.811,176.03-176.03,176.03
	c-97.217,0-176.03-78.811-176.03-176.03C79.887,158.726,158.697,79.912,255.916,79.912z M255.916,153.726
	c56.452,0,102.216,45.763,102.216,102.216s-45.763,102.217-102.216,102.217S153.7,312.395,153.7,255.943
	S199.463,153.726,255.916,153.726z"/>
<path style="fill:#D1D2D4;" d="M255.916,140.236c63.899,0,115.703,51.805,115.703,115.703s-51.805,115.703-115.703,115.703
	S140.212,319.838,140.212,255.94S192.017,140.236,255.916,140.236z M255.916,153.724c56.452,0,102.216,45.763,102.216,102.216
	s-45.763,102.216-102.216,102.216S153.7,312.392,153.7,255.94S199.463,153.724,255.916,153.724z"/>
<g>
	<path style="fill:#FF5B62;" d="M85.593,300.538c-3.72-14.243-5.705-29.189-5.705-44.599c0-15.41,1.986-30.356,5.705-44.602
		l73.339,12.244c-3.391,10.167-5.231,21.047-5.231,32.355c0,11.308,1.838,22.186,5.231,32.355l-73.339,12.244V300.538z"/>
	<path style="fill:#FF5B62;" d="M300.517,426.264c-14.245,3.72-29.192,5.705-44.602,5.705s-30.356-1.986-44.599-5.705l12.244-73.339
		c10.169,3.391,21.045,5.231,32.355,5.231c11.308,0,22.188-1.838,32.355-5.231l12.244,73.339H300.517z"/>
	<path style="fill:#FF5B62;" d="M426.241,211.341c3.72,14.243,5.705,29.189,5.705,44.602c0,15.41-1.986,30.356-5.705,44.599
		l-73.339-12.244c3.391-10.169,5.231-21.045,5.231-32.355c0-11.308-1.838-22.188-5.231-32.355l73.339-12.244V211.341z"/>
	<path style="fill:#FF5B62;" d="M300.517,85.617l-12.244,73.339c-10.169-3.391-21.047-5.231-32.355-5.231
		c-11.308,0-22.186,1.838-32.355,5.231L211.32,85.617c14.243-3.72,29.189-5.705,44.599-5.705s30.356,1.986,44.602,5.705H300.517z"/>
</g>
<path style="fill:#ED4C54;" d="M290.519,145.501l-2.248,13.454c-0.535-0.179-1.076-0.351-1.616-0.525l-0.685-0.213
	c-0.582-0.179-1.168-0.351-1.758-0.522l-0.661-0.187c-0.59-0.166-1.183-0.325-1.779-0.48l-0.611-0.158
	c-0.646-0.163-1.29-0.32-1.938-0.472l-0.477-0.11c-0.68-0.155-1.364-0.304-2.049-0.446l-0.43-0.087
	c-0.677-0.137-1.356-0.267-2.038-0.391l-0.462-0.081c-0.688-0.121-1.374-0.234-2.067-0.341l-0.43-0.066
	c-0.748-0.113-1.5-0.218-2.251-0.314l-0.068-0.008l-0.021-0.003l-0.108-0.011c-0.794-0.1-1.592-0.192-2.392-0.272l-0.05-0.005
	l-0.016-0.003l-0.06-0.005c-0.828-0.084-1.666-0.158-2.5-0.221h-0.013h-0.01l-0.034-0.003c-0.85-0.066-1.705-0.118-2.563-0.163
	h-0.008c-0.871-0.045-1.742-0.079-2.618-0.1h-0.005c-0.876-0.024-1.758-0.034-2.639-0.034c-0.881,0-1.76,0.011-2.639,0.034h-0.005
	c-0.873,0.024-1.747,0.055-2.618,0.1h-0.008c-0.857,0.045-1.711,0.097-2.563,0.163l-0.034,0.003h-0.011h-0.013
	c-0.836,0.066-1.668,0.137-2.5,0.221l-0.06,0.005l-0.016,0.003l-0.053,0.005c-0.8,0.081-1.598,0.173-2.392,0.272l-0.108,0.011
	l-0.021,0.003l-0.071,0.011c-0.748,0.097-1.495,0.202-2.24,0.312l-0.446,0.068c-0.69,0.108-1.374,0.221-2.059,0.341l-0.469,0.084
	c-0.674,0.124-1.345,0.252-2.014,0.385l-0.454,0.092c-0.68,0.142-1.356,0.288-2.033,0.443l-0.511,0.118
	c-0.63,0.147-1.26,0.301-1.886,0.459l-0.677,0.176c-0.575,0.15-1.146,0.304-1.716,0.464l-0.706,0.2
	c-0.572,0.163-1.141,0.333-1.705,0.509l-0.751,0.234c-0.527,0.166-1.052,0.338-1.574,0.511l-0.008,0.003l-2.248-13.454
	c10.925-3.42,22.548-5.265,34.6-5.265s23.676,1.846,34.602,5.265L290.519,145.501z M366.354,221.336
	c3.42,10.925,5.265,22.547,5.265,34.602c0,12.052-1.846,23.676-5.265,34.6l-13.454-2.248l0.003-0.008
	c0.176-0.522,0.343-1.049,0.511-1.574l0.234-0.751c0.173-0.567,0.343-1.136,0.509-1.705l0.2-0.706
	c0.16-0.572,0.314-1.141,0.464-1.716l0.176-0.677c0.16-0.627,0.312-1.254,0.459-1.886l0.118-0.511
	c0.152-0.677,0.301-1.353,0.443-2.033l0.092-0.454c0.137-0.669,0.264-1.34,0.385-2.014l0.084-0.469
	c0.121-0.685,0.234-1.372,0.341-2.059l0.068-0.446c0.113-0.745,0.218-1.49,0.312-2.24l0.01-0.071l0.003-0.021l0.01-0.108
	c0.1-0.794,0.192-1.59,0.272-2.392l0.005-0.053l0.003-0.016l0.005-0.06c0.084-0.828,0.158-1.666,0.221-2.5v-0.013v-0.01l0.003-0.034
	c0.066-0.85,0.118-1.705,0.163-2.563v-0.008c0.045-0.871,0.079-1.742,0.1-2.618v-0.005c0.024-0.876,0.034-1.758,0.034-2.639
	c0-0.881-0.011-1.76-0.034-2.639v-0.005c-0.024-0.876-0.058-1.747-0.1-2.618v-0.011c-0.045-0.857-0.1-1.716-0.163-2.568v-0.026
	v-0.013v-0.003c-0.066-0.839-0.139-1.676-0.223-2.51l-0.005-0.06l-0.003-0.016l-0.005-0.05c-0.081-0.805-0.176-1.608-0.275-2.408
	l-0.011-0.092l-0.003-0.021l-0.006-0.054c-0.097-0.758-0.202-1.511-0.314-2.264l-0.066-0.43c-0.108-0.698-0.223-1.395-0.346-2.088
	l-0.076-0.425c-0.126-0.698-0.26-1.39-0.398-2.083l-0.079-0.377c-0.145-0.698-0.296-1.395-0.454-2.088l-0.108-0.462
	c-0.152-0.656-0.312-1.306-0.477-1.957l-0.152-0.593c-0.155-0.596-0.314-1.191-0.483-1.784l-0.181-0.64
	c-0.171-0.596-0.349-1.189-0.53-1.779l-0.208-0.664c-0.173-0.546-0.349-1.089-0.527-1.632l13.454-2.248v0.008H366.354z
	 M290.519,366.378c-10.925,3.42-22.547,5.265-34.602,5.265c-12.052,0-23.676-1.846-34.6-5.265l2.248-13.454l0.008,0.003
	c0.522,0.176,1.049,0.343,1.574,0.511l0.751,0.234c0.567,0.173,1.136,0.343,1.705,0.509l0.706,0.2
	c0.572,0.16,1.141,0.314,1.716,0.464l0.677,0.176c0.627,0.16,1.254,0.312,1.886,0.459l0.511,0.118
	c0.677,0.152,1.353,0.301,2.033,0.443l0.454,0.092c0.669,0.137,1.34,0.264,2.014,0.385l0.469,0.084
	c0.685,0.121,1.372,0.234,2.059,0.341l0.446,0.068c0.745,0.113,1.49,0.218,2.24,0.312l0.071,0.011l0.021,0.003l0.108,0.01
	c0.794,0.1,1.59,0.192,2.392,0.272l0.053,0.005l0.016,0.003l0.06,0.005c0.828,0.084,1.666,0.158,2.5,0.221h0.013h0.011l0.034,0.003
	c0.85,0.066,1.705,0.118,2.563,0.163h0.008c0.871,0.045,1.742,0.079,2.618,0.1h0.005c0.876,0.024,1.758,0.034,2.639,0.034
	c0.881,0,1.76-0.011,2.639-0.034h0.005c0.876-0.024,1.747-0.058,2.618-0.1h0.011c0.857-0.045,1.716-0.1,2.568-0.163h0.026h0.013
	h0.003c0.839-0.066,1.676-0.139,2.51-0.223l0.06-0.005l0.016-0.003l0.05-0.005c0.805-0.081,1.608-0.176,2.408-0.275l0.092-0.01
	l0.021-0.003l0.055-0.008c0.759-0.097,1.511-0.202,2.264-0.314l0.43-0.066c0.698-0.108,1.395-0.223,2.088-0.346l0.425-0.076
	c0.698-0.126,1.39-0.259,2.083-0.398l0.377-0.079c0.698-0.145,1.395-0.296,2.088-0.454l0.462-0.108
	c0.656-0.152,1.306-0.312,1.957-0.477l0.593-0.152c0.596-0.155,1.191-0.314,1.783-0.483l0.64-0.181
	c0.596-0.171,1.189-0.349,1.779-0.53l0.664-0.208c0.546-0.173,1.089-0.349,1.632-0.527l2.248,13.454h-0.01V366.378z
	 M145.477,290.542c-3.42-10.925-5.265-22.547-5.265-34.6c0-12.052,1.846-23.676,5.265-34.602l13.454,2.248
	c-0.181,0.54-0.356,1.086-0.527,1.632l-0.208,0.664c-0.181,0.59-0.356,1.183-0.53,1.779l-0.181,0.64
	c-0.166,0.593-0.325,1.189-0.483,1.784l-0.152,0.593c-0.166,0.651-0.325,1.303-0.477,1.957l-0.108,0.462
	c-0.16,0.695-0.309,1.387-0.454,2.088l-0.079,0.377c-0.139,0.693-0.272,1.385-0.398,2.083l-0.076,0.425
	c-0.124,0.693-0.237,1.387-0.346,2.088l-0.066,0.43c-0.116,0.751-0.221,1.506-0.314,2.264l-0.008,0.055l-0.003,0.021l-0.011,0.092
	c-0.1,0.8-0.192,1.603-0.275,2.408l-0.005,0.05l-0.003,0.016l-0.005,0.06c-0.084,0.834-0.16,1.671-0.223,2.51v0.003v0.013v0.026
	c-0.066,0.852-0.121,1.711-0.163,2.568v0.011c-0.045,0.871-0.079,1.742-0.1,2.618v0.005c-0.024,0.876-0.034,1.758-0.034,2.639
	c0,0.881,0.011,1.76,0.034,2.639v0.005c0.024,0.873,0.055,1.747,0.1,2.618v0.008c0.045,0.857,0.097,1.711,0.163,2.563l0.003,0.034
	v0.011v0.013c0.066,0.836,0.137,1.666,0.221,2.497l0.005,0.063l0.003,0.016l0.005,0.053c0.081,0.8,0.173,1.598,0.272,2.392
	l0.011,0.108l0.003,0.021l0.011,0.071c0.097,0.748,0.202,1.495,0.312,2.24l0.068,0.446c0.108,0.69,0.221,1.374,0.341,2.059
	l0.084,0.469c0.124,0.68,0.255,1.356,0.391,2.03l0.087,0.43c0.142,0.685,0.291,1.361,0.443,2.038l0.118,0.512
	c0.15,0.638,0.301,1.273,0.464,1.904l0.171,0.656c0.15,0.575,0.304,1.146,0.464,1.716l0.2,0.706
	c0.166,0.572,0.335,1.141,0.509,1.711l0.229,0.735c0.166,0.53,0.338,1.057,0.514,1.584l0.003,0.008l-13.454,2.248V290.542z"/>
<g>
	<path style="fill:#FAD24D;" d="M270.35,74.116l-1.049,6.298c-4.417-0.333-8.882-0.501-13.383-0.501
		c-4.504,0-8.968,0.171-13.383,0.504l-1.049-6.298c4.611-1.204,9.448-1.846,14.435-1.846c4.986,0,9.823,0.643,14.435,1.846
		L270.35,74.116z"/>
	<path style="fill:#FAD24D;" d="M270.35,437.884l-1.049-6.298c-4.417,0.333-8.882,0.501-13.383,0.501
		c-4.504,0-8.968-0.171-13.383-0.504l-1.049,6.298c4.611,1.204,9.448,1.846,14.435,1.846c4.986,0,9.823-0.643,14.435-1.846
		L270.35,437.884z"/>
	<path style="fill:#FAD24D;" d="M74.097,241.505l6.298,1.049c-0.333,4.417-0.501,8.882-0.501,13.383
		c0,4.504,0.171,8.968,0.504,13.383l-6.298,1.049c-1.204-4.611-1.846-9.449-1.846-14.435s0.643-9.823,1.846-14.435L74.097,241.505z"
		/>
	<path style="fill:#FAD24D;" d="M437.902,241.505l-6.298,1.049c0.333,4.417,0.501,8.882,0.501,13.383
		c0,4.504-0.171,8.968-0.504,13.383l6.298,1.049c1.204-4.611,1.846-9.449,1.846-14.435s-0.643-9.823-1.846-14.435L437.902,241.505z"
		/>
</g>
<g>
</g>
<g>
</g>
<g>
</g>
<g>
</g>
<g>
</g>
<g>
</g>
<g>
</g>
<g>
</g>
<g>
</g>
<g>
</g>
<g>
</g>
<g>
</g>
<g>
</g>
<g>
</g>
<g>
</g>
</svg>
