<?xml version="1.0" encoding="UTF-8"?>
<!DOCTYPE svg PUBLIC "-//W3C//DTD SVG 1.1//EN" "http://www.w3.org/Graphics/SVG/1.1/DTD/svg11.dtd">
<svg version="1.1" xmlns="http://www.w3.org/2000/svg" xmlns:xlink="http://www.w3.org/1999/xlink" x="0" y="0" width="382" height="81" viewBox="0, 0, 382, 81">
  <g id="Layer_1">
    <path d="M100.692,41.394 L112.95,41.394 C116.227,41.394 120.899,43.397 120.899,47.22 C120.899,51.224 116.227,52.316 112.95,52.316 L100.692,52.316 z M100.692,24.584 L112.95,24.584 C118.047,24.584 119.625,27.861 119.625,29.803 C119.625,32.23 117.986,34.354 112.95,34.354 L100.692,34.354 z M112.95,17.302 C106.214,17.302 99.478,17.302 92.803,17.302 L92.803,59.781 C99.539,59.781 106.214,59.781 112.95,59.781 C121.749,59.781 128.849,56.747 128.849,47.281 C128.849,44.61 127.029,39.331 122.052,37.814 C125.997,36.054 127.575,32.898 127.575,29.621 C127.575,21.064 121.324,17.302 112.95,17.302 z" fill="#394D51"/>
    <path d="M155.459,16.452 C140.773,16.452 133.613,27.679 133.613,38.845 C133.613,50.011 140.531,60.752 155.459,60.752 C170.388,60.752 177.124,49.768 177.246,38.785 C177.367,27.679 170.085,16.452 155.459,16.452 z M155.459,23.734 C165.473,23.734 169.478,31.745 169.356,38.906 C169.235,45.885 165.473,53.409 155.459,53.409 C145.446,53.409 141.684,45.945 141.502,38.967 C141.32,31.806 145.446,23.734 155.459,23.734 z" fill="#394D51"/>
    <path d="M220.817,59.235 L207.952,44.732 C216.023,43.093 218.693,37.207 218.693,31.381 C218.693,24.038 213.413,17.362 203.4,17.302 C196.664,17.302 189.928,17.241 183.192,17.241 L183.192,59.781 L191.202,59.781 L191.202,45.581 L198.909,45.581 L211.289,59.781 L220.817,59.781 z M203.4,24.766 C208.437,24.766 210.683,28.164 210.683,31.563 C210.683,34.961 208.498,38.36 203.4,38.36 L191.202,38.36 L191.202,24.766 z" fill="#394D51"/>
    <path d="M224.094,17.302 L224.094,59.781 L253.95,59.781 L253.95,52.377 L232.104,52.377 L232.104,17.302 z" fill="#394D51"/>
    <path d="M293.335,59.781 L302.073,59.781 L283.018,17.302 L274.279,17.302 L255.225,59.781 L263.903,59.781 L267.544,51.77 L289.754,51.77 z M286.538,44.307 L270.759,44.307 L278.649,26.223 z" fill="#394D51"/>
    <path d="M312.693,41.394 L324.951,41.394 C328.228,41.394 332.901,43.397 332.901,47.22 C332.901,51.224 328.228,52.316 324.951,52.316 L312.693,52.316 z M312.693,24.584 L324.951,24.584 C330.049,24.584 331.626,27.861 331.626,29.803 C331.626,32.23 329.988,34.354 324.951,34.354 L312.693,34.354 z M324.951,17.302 C318.215,17.302 311.479,17.302 304.804,17.302 L304.804,59.781 C311.54,59.781 318.215,59.781 324.951,59.781 C333.75,59.781 340.851,56.747 340.851,47.281 C340.851,44.61 339.03,39.331 334.054,37.814 C337.998,36.054 339.576,32.898 339.576,29.621 C339.576,21.064 333.326,17.302 324.951,17.302 z" fill="#394D51"/>
    <path d="M379.718,24.281 C376.503,17.727 369.646,15.845 363.031,15.845 C355.202,15.906 346.585,19.486 346.585,28.225 C346.585,37.753 354.595,40.059 363.274,41.091 C368.917,41.697 373.105,43.336 373.105,47.341 C373.105,51.952 368.371,53.712 363.334,53.712 C358.176,53.712 353.26,51.649 351.379,46.977 L344.704,50.436 C347.859,58.203 354.535,60.873 363.213,60.873 C372.68,60.873 381.054,56.807 381.054,47.341 C381.054,37.207 372.801,34.901 363.941,33.808 C358.843,33.201 354.474,32.17 354.474,28.468 C354.474,25.312 357.326,22.824 363.274,22.824 C367.886,22.824 371.891,25.13 373.347,27.558 z" fill="#394D51"/>
    <g>
      <path d="M30.783,4.925 C30.628,3.463 29.913,2.149 28.771,1.227 C27.795,0.435 26.567,0 25.311,0 C23.639,0 22.079,0.746 21.032,2.045 L1.213,26.558 C-0.412,28.569 -0.404,31.487 1.234,33.497 L21.049,57.754 C22.097,59.042 23.65,59.781 25.311,59.781 C26.566,59.781 27.799,59.345 28.795,58.544 C31.144,56.624 31.492,53.151 29.572,50.801 L12.585,29.999 L29.585,8.961 C30.512,7.819 30.937,6.386 30.783,4.925" fill="#267587"/>
      <path d="M69.194,47.378 L49.374,23.111 C48.323,21.829 46.77,21.094 45.113,21.094 C43.849,21.094 42.612,21.535 41.633,22.336 C39.287,24.252 38.937,27.726 40.855,30.079 L57.842,50.875 L40.835,71.916 C38.928,74.274 39.295,77.746 41.659,79.657 C42.637,80.443 43.864,80.875 45.111,80.875 C46.786,80.875 48.348,80.129 49.391,78.83 L69.209,54.317 C70.836,52.303 70.83,49.386 69.194,47.378" fill="#394D51"/>
    </g>
  </g>
</svg>
