<?xml version="1.0" encoding="UTF-8"?>
<!DOCTYPE svg PUBLIC "-//W3C//DTD SVG 1.1//EN" "http://www.w3.org/Graphics/SVG/1.1/DTD/svg11.dtd">
<svg version="1.1" xmlns="http://www.w3.org/2000/svg" xmlns:xlink="http://www.w3.org/1999/xlink" x="0" y="0" width="416" height="114" viewBox="0, 0, 416, 114">
  <g id="Layer_1">
    <path d="M80.319,113.588 L33.269,113.588 L-0,80.319 L-0,33.269 L33.269,0 L80.319,0 L113.588,33.269 L113.588,80.319 z M23.229,76.086 C23.229,78.379 23.28,80.481 23.213,82.579 C23.162,84.201 23.753,85.526 24.907,86.564 C25.803,87.37 26.79,88.113 27.838,88.705 C31.026,90.505 34.493,91.577 38.061,92.318 C39.925,92.705 41.83,92.947 43.681,93.331 C45.716,93.754 47.764,93.692 49.793,93.991 C51.768,94.281 53.801,94.256 55.808,94.238 C59.072,94.21 62.332,94.079 65.594,93.82 C68.576,93.584 71.514,93.121 74.436,92.582 C77.638,91.991 80.771,91.064 83.758,89.74 C85.596,88.926 87.355,87.94 88.791,86.488 C89.812,85.456 90.42,84.247 90.385,82.737 C90.343,80.914 90.38,79.088 90.371,77.264 C90.369,76.909 90.312,76.555 90.272,76.104 C89.832,76.309 89.484,76.44 89.165,76.624 C86.284,78.283 83.231,79.482 80.019,80.372 C76.194,81.432 72.307,82.097 68.383,82.569 C65.559,82.908 62.726,83.162 59.869,83.144 C54.919,83.112 49.965,83.242 45.041,82.572 C44.35,82.478 43.663,82.357 42.974,82.249 C41.414,82.007 39.84,81.824 38.296,81.508 C36.659,81.174 35.03,80.769 33.429,80.291 C31.652,79.761 29.875,79.196 28.161,78.492 C26.53,77.821 24.981,76.95 23.229,76.086 M23.363,60.503 C23.319,60.643 23.243,60.772 23.243,60.903 C23.235,63.15 23.189,65.399 23.264,67.642 C23.287,68.306 23.523,69.054 23.903,69.594 C24.485,70.422 25.205,71.189 25.993,71.827 C27.38,72.948 28.994,73.709 30.638,74.394 C33.268,75.49 36.024,76.173 38.782,76.837 C39.956,77.12 41.161,77.283 42.359,77.458 C43.74,77.66 45.125,77.843 46.514,77.98 C48.091,78.136 49.674,78.316 51.256,78.336 C55.14,78.386 59.027,78.415 62.908,78.321 C65.141,78.267 67.381,78.052 69.592,77.732 C71.797,77.414 73.965,76.854 76.156,76.436 C79.148,75.865 82.004,74.894 84.74,73.569 C86.261,72.832 87.689,71.946 88.866,70.715 C89.872,69.664 90.434,68.438 90.388,66.933 C90.334,65.202 90.38,63.469 90.371,61.737 C90.369,61.333 90.319,60.929 90.283,60.398 C89.708,60.699 89.249,60.923 88.806,61.174 C86.527,62.466 84.124,63.489 81.625,64.245 C79.583,64.863 77.487,65.306 75.408,65.798 C74.549,66.003 73.678,66.204 72.802,66.283 C70.945,66.453 69.135,67.038 67.245,66.898 C67.111,66.888 66.974,66.968 66.836,66.983 C65.537,67.122 64.241,67.353 62.941,67.372 C59.15,67.425 55.358,67.418 51.566,67.38 C50.122,67.365 48.678,67.212 47.236,67.097 C46.679,67.053 46.129,66.932 45.575,66.864 C43.818,66.65 42.047,66.523 40.307,66.216 C38.25,65.853 36.2,65.408 34.183,64.864 C32.392,64.382 30.613,63.805 28.895,63.107 C27.047,62.355 25.276,61.413 23.363,60.503 M90.298,44.793 C90.077,44.815 89.969,44.794 89.9,44.837 C86.868,46.72 83.588,48.025 80.167,48.989 C78.78,49.38 77.377,49.728 75.965,50.019 C74.602,50.299 73.222,50.517 71.841,50.697 C69.628,50.986 67.41,51.259 65.188,51.467 C63.469,51.627 61.741,51.701 60.015,51.77 C58.059,51.848 56.099,51.957 54.144,51.909 C52.284,51.863 50.429,51.634 48.572,51.48 C46.809,51.334 45.03,51.281 43.287,51.006 C40.625,50.585 37.972,50.078 35.344,49.478 C32.119,48.743 28.984,47.707 26.046,46.148 C25.166,45.681 24.291,45.204 23.283,44.661 C23.26,45.156 23.232,45.475 23.232,45.793 C23.227,47.477 23.32,49.168 23.206,50.844 C23.065,52.919 23.925,54.457 25.445,55.721 C25.911,56.108 26.407,56.463 26.916,56.79 C29.938,58.73 33.308,59.809 36.756,60.649 C38.468,61.067 40.249,61.217 41.949,61.673 C43.635,62.127 45.363,62.124 47.063,62.382 C48.626,62.619 50.241,62.487 51.81,62.689 C54.047,62.978 56.282,62.97 58.521,62.898 C60.665,62.828 62.81,62.732 64.949,62.576 C66.713,62.446 68.478,62.271 70.226,62.005 C71.786,61.767 73.316,61.346 74.869,61.055 C78.127,60.445 81.282,59.499 84.29,58.111 C85.944,57.348 87.533,56.446 88.81,55.099 C89.81,54.045 90.423,52.846 90.385,51.338 C90.342,49.608 90.38,47.877 90.371,46.146 C90.369,45.696 90.324,45.246 90.298,44.793 M56.752,47.324 C58.896,47.214 61.042,47.118 63.184,46.986 C64.022,46.934 64.859,46.692 65.688,46.73 C67.675,46.821 69.585,46.296 71.52,46.045 C73.439,45.796 75.346,45.324 77.241,44.835 C79.46,44.261 81.627,43.577 83.723,42.684 C85.577,41.894 87.344,40.922 88.771,39.451 C89.819,38.372 90.447,37.127 90.388,35.561 C90.331,34.065 90.319,32.562 90.39,31.068 C90.472,29.341 89.817,27.962 88.582,26.842 C87.927,26.249 87.212,25.706 86.466,25.234 C83.716,23.497 80.67,22.467 77.539,21.695 C75.6,21.217 73.635,20.831 71.664,20.5 C69.739,20.178 67.796,19.942 65.853,19.735 C64.322,19.573 62.769,19.595 61.245,19.39 C58.585,19.033 55.92,19.215 53.263,19.249 C51.029,19.278 48.8,19.57 46.568,19.746 C46.382,19.761 46.192,19.761 46.01,19.8 C43.599,20.32 41.142,20.551 38.723,21.071 C35.102,21.85 31.59,22.879 28.281,24.54 C26.943,25.212 25.693,26.044 24.664,27.161 C23.71,28.197 23.149,29.363 23.214,30.83 C23.283,32.371 23.289,33.921 23.213,35.463 C23.128,37.197 23.815,38.535 25.041,39.677 C26.395,40.938 27.988,41.822 29.648,42.579 C33.706,44.428 38.019,45.425 42.393,46.1 C44.456,46.418 46.526,46.895 48.647,46.744 C48.739,46.737 48.836,46.742 48.926,46.76 C51.51,47.3 54.131,47.23 56.752,47.324 M182.854,78.733 C176.802,84.701 168.985,87.475 160.495,87.475 C138.64,87.475 129.394,72.429 129.309,57.13 C129.225,41.748 139.228,26.113 160.495,26.113 C168.481,26.113 176.046,29.139 182.098,35.107 L174.701,42.252 C170.834,38.469 165.623,36.704 160.495,36.704 C146.289,36.704 140.153,47.295 140.237,57.13 C140.321,66.881 145.953,77.052 160.495,77.052 C165.623,77.052 171.423,74.951 175.289,71.084 z M218.7,39.646 L207.773,64.695 L229.628,64.695 z M234.083,75.035 L203.318,75.035 L198.274,86.13 L186.254,86.13 L212.648,27.29 L224.753,27.29 L251.147,86.13 L239.043,86.13 z M304.524,78.733 C298.472,84.701 290.654,87.475 282.164,87.475 C260.309,87.475 251.063,72.429 250.979,57.13 C250.895,41.748 260.898,26.113 282.164,26.113 C290.15,26.113 297.715,29.139 303.767,35.107 L296.37,42.252 C292.503,38.469 287.292,36.704 282.164,36.704 C267.958,36.704 261.822,47.295 261.906,57.13 C261.99,66.881 267.622,77.052 282.164,77.052 C287.292,77.052 293.092,74.951 296.958,71.084 z M352.007,86.214 L352.007,62.426 L323.091,62.426 L323.091,86.214 L311.995,86.214 L311.995,27.374 L323.091,27.374 L323.091,52.171 L352.007,52.171 L352.007,27.374 L363.019,27.374 L363.019,86.214 z M415.569,86.13 L371.523,86.13 C371.523,66.545 371.523,46.875 371.523,27.29 L415.569,27.29 L415.569,38.049 L382.534,38.049 L382.534,51.582 L414.392,51.582 L414.392,61.922 L382.534,61.922 L382.534,75.203 L415.569,75.203 z" fill="#3F86BA"/>
  </g>
</svg>
